<mxfile host="app.diagrams.net" modified="2024-05-28T09:37:30.289Z" agent="Mozilla/5.0 (Windows NT 10.0; Win64; x64) AppleWebKit/537.36 (KHTML, like Gecko) Chrome/125.0.0.0 Safari/537.36 Edg/125.0.0.0" etag="zgnoJNA2_xPda14840rY" version="24.4.8" type="device">
  <diagram id="R2lEEEUBdFMjLlhIrx00" name="Page-1">
    <mxGraphModel dx="2236" dy="797" grid="1" gridSize="10" guides="1" tooltips="1" connect="1" arrows="1" fold="1" page="1" pageScale="1" pageWidth="850" pageHeight="1100" math="0" shadow="0" extFonts="Permanent Marker^https://fonts.googleapis.com/css?family=Permanent+Marker">
      <root>
        <mxCell id="0" />
        <mxCell id="1" parent="0" />
        <mxCell id="3ohj34XaAgGaeCBu6ZUZ-23" style="edgeStyle=orthogonalEdgeStyle;rounded=0;orthogonalLoop=1;jettySize=auto;html=1;entryX=0;entryY=0.5;entryDx=0;entryDy=0;endArrow=none;endFill=0;" parent="1" source="3ohj34XaAgGaeCBu6ZUZ-2" target="3ohj34XaAgGaeCBu6ZUZ-20" edge="1">
          <mxGeometry relative="1" as="geometry" />
        </mxCell>
        <mxCell id="3ohj34XaAgGaeCBu6ZUZ-30" value="" style="edgeStyle=orthogonalEdgeStyle;rounded=0;orthogonalLoop=1;jettySize=auto;html=1;endArrow=none;endFill=0;" parent="1" source="3ohj34XaAgGaeCBu6ZUZ-2" target="3ohj34XaAgGaeCBu6ZUZ-29" edge="1">
          <mxGeometry relative="1" as="geometry" />
        </mxCell>
        <mxCell id="3ohj34XaAgGaeCBu6ZUZ-2" value="Usuario" style="rounded=0;whiteSpace=wrap;html=1;" parent="1" vertex="1">
          <mxGeometry x="120" y="110" width="120" height="60" as="geometry" />
        </mxCell>
        <mxCell id="2gb4X_S6ik0PkrU1D8sP-4" style="edgeStyle=orthogonalEdgeStyle;rounded=0;orthogonalLoop=1;jettySize=auto;html=1;entryX=0;entryY=0.5;entryDx=0;entryDy=0;endArrow=none;endFill=0;" parent="1" source="3ohj34XaAgGaeCBu6ZUZ-3" target="3ohj34XaAgGaeCBu6ZUZ-2" edge="1">
          <mxGeometry relative="1" as="geometry" />
        </mxCell>
        <mxCell id="3ohj34XaAgGaeCBu6ZUZ-3" value="&lt;u&gt;Id&lt;/u&gt;" style="ellipse;whiteSpace=wrap;html=1;rounded=0;" parent="1" vertex="1">
          <mxGeometry x="-70" y="50" width="90" height="40" as="geometry" />
        </mxCell>
        <mxCell id="2gb4X_S6ik0PkrU1D8sP-3" style="edgeStyle=orthogonalEdgeStyle;rounded=0;orthogonalLoop=1;jettySize=auto;html=1;entryX=0;entryY=0.5;entryDx=0;entryDy=0;endArrow=none;endFill=0;" parent="1" source="3ohj34XaAgGaeCBu6ZUZ-8" target="3ohj34XaAgGaeCBu6ZUZ-2" edge="1">
          <mxGeometry relative="1" as="geometry" />
        </mxCell>
        <mxCell id="3ohj34XaAgGaeCBu6ZUZ-8" value="Username" style="ellipse;whiteSpace=wrap;html=1;rounded=0;" parent="1" vertex="1">
          <mxGeometry x="-70" y="100" width="90" height="40" as="geometry" />
        </mxCell>
        <mxCell id="2gb4X_S6ik0PkrU1D8sP-2" style="edgeStyle=orthogonalEdgeStyle;rounded=0;orthogonalLoop=1;jettySize=auto;html=1;entryX=0;entryY=0.5;entryDx=0;entryDy=0;endArrow=none;endFill=0;" parent="1" source="3ohj34XaAgGaeCBu6ZUZ-9" target="3ohj34XaAgGaeCBu6ZUZ-2" edge="1">
          <mxGeometry relative="1" as="geometry" />
        </mxCell>
        <mxCell id="3ohj34XaAgGaeCBu6ZUZ-9" value="Password" style="ellipse;whiteSpace=wrap;html=1;rounded=0;" parent="1" vertex="1">
          <mxGeometry x="-70" y="150" width="90" height="40" as="geometry" />
        </mxCell>
        <mxCell id="2gb4X_S6ik0PkrU1D8sP-1" style="edgeStyle=orthogonalEdgeStyle;rounded=0;orthogonalLoop=1;jettySize=auto;html=1;entryX=0;entryY=0.5;entryDx=0;entryDy=0;endArrow=none;endFill=0;" parent="1" source="3ohj34XaAgGaeCBu6ZUZ-11" target="3ohj34XaAgGaeCBu6ZUZ-2" edge="1">
          <mxGeometry relative="1" as="geometry" />
        </mxCell>
        <mxCell id="3ohj34XaAgGaeCBu6ZUZ-11" value="Email" style="ellipse;whiteSpace=wrap;html=1;rounded=0;" parent="1" vertex="1">
          <mxGeometry x="-70" y="200" width="90" height="40" as="geometry" />
        </mxCell>
        <mxCell id="3ohj34XaAgGaeCBu6ZUZ-20" value="" style="triangle;whiteSpace=wrap;html=1;rotation=90;labelPosition=left;verticalLabelPosition=middle;align=right;verticalAlign=middle;" parent="1" vertex="1">
          <mxGeometry x="150" y="240" width="60" height="80" as="geometry" />
        </mxCell>
        <mxCell id="3ohj34XaAgGaeCBu6ZUZ-26" style="edgeStyle=orthogonalEdgeStyle;rounded=0;orthogonalLoop=1;jettySize=auto;html=1;entryX=1;entryY=0.5;entryDx=0;entryDy=0;endArrow=none;endFill=0;" parent="1" source="3ohj34XaAgGaeCBu6ZUZ-24" target="3ohj34XaAgGaeCBu6ZUZ-20" edge="1">
          <mxGeometry relative="1" as="geometry" />
        </mxCell>
        <mxCell id="3ohj34XaAgGaeCBu6ZUZ-24" value="Cliente" style="rounded=0;whiteSpace=wrap;html=1;" parent="1" vertex="1">
          <mxGeometry x="20" y="390" width="120" height="60" as="geometry" />
        </mxCell>
        <mxCell id="3ohj34XaAgGaeCBu6ZUZ-27" style="edgeStyle=orthogonalEdgeStyle;rounded=0;orthogonalLoop=1;jettySize=auto;html=1;entryX=1;entryY=0.5;entryDx=0;entryDy=0;endArrow=none;endFill=0;" parent="1" source="3ohj34XaAgGaeCBu6ZUZ-25" target="3ohj34XaAgGaeCBu6ZUZ-20" edge="1">
          <mxGeometry relative="1" as="geometry" />
        </mxCell>
        <mxCell id="2gb4X_S6ik0PkrU1D8sP-18" style="edgeStyle=orthogonalEdgeStyle;rounded=0;orthogonalLoop=1;jettySize=auto;html=1;entryX=0;entryY=0.5;entryDx=0;entryDy=0;endArrow=none;endFill=0;exitX=0.892;exitY=0;exitDx=0;exitDy=0;exitPerimeter=0;" parent="1" source="3ohj34XaAgGaeCBu6ZUZ-25" target="2gb4X_S6ik0PkrU1D8sP-17" edge="1">
          <mxGeometry relative="1" as="geometry">
            <Array as="points">
              <mxPoint x="320" y="390" />
              <mxPoint x="320" y="305" />
            </Array>
          </mxGeometry>
        </mxCell>
        <mxCell id="KXtynWiLL4oQulAT6T8i-2" style="edgeStyle=orthogonalEdgeStyle;rounded=0;orthogonalLoop=1;jettySize=auto;html=1;entryX=0;entryY=0.5;entryDx=0;entryDy=0;endArrow=none;endFill=0;" edge="1" parent="1" source="3ohj34XaAgGaeCBu6ZUZ-25" target="3ohj34XaAgGaeCBu6ZUZ-45">
          <mxGeometry relative="1" as="geometry" />
        </mxCell>
        <mxCell id="3ohj34XaAgGaeCBu6ZUZ-25" value="Entrenador" style="rounded=0;whiteSpace=wrap;html=1;" parent="1" vertex="1">
          <mxGeometry x="210" y="390" width="120" height="60" as="geometry" />
        </mxCell>
        <mxCell id="3ohj34XaAgGaeCBu6ZUZ-28" value="&lt;span style=&quot;color: rgb(0, 0, 0); font-family: Helvetica; font-size: 12px; font-style: normal; font-variant-ligatures: normal; font-variant-caps: normal; font-weight: 400; letter-spacing: normal; orphans: 2; text-align: center; text-indent: 0px; text-transform: none; widows: 2; word-spacing: 0px; -webkit-text-stroke-width: 0px; white-space: normal; background-color: rgb(251, 251, 251); text-decoration-thickness: initial; text-decoration-style: initial; text-decoration-color: initial; display: inline !important; float: none;&quot;&gt;Es&lt;/span&gt;" style="text;whiteSpace=wrap;html=1;" parent="1" vertex="1">
          <mxGeometry x="170" y="260" width="90" height="40" as="geometry" />
        </mxCell>
        <mxCell id="3ohj34XaAgGaeCBu6ZUZ-32" style="edgeStyle=orthogonalEdgeStyle;rounded=0;orthogonalLoop=1;jettySize=auto;html=1;endArrow=none;endFill=0;entryX=0;entryY=0.5;entryDx=0;entryDy=0;" parent="1" source="3ohj34XaAgGaeCBu6ZUZ-29" target="3ohj34XaAgGaeCBu6ZUZ-33" edge="1">
          <mxGeometry relative="1" as="geometry">
            <mxPoint x="530" y="140" as="targetPoint" />
          </mxGeometry>
        </mxCell>
        <mxCell id="3ohj34XaAgGaeCBu6ZUZ-29" value="Crear" style="rhombus;whiteSpace=wrap;html=1;rounded=0;" parent="1" vertex="1">
          <mxGeometry x="340" y="100" width="100" height="80" as="geometry" />
        </mxCell>
        <mxCell id="3ohj34XaAgGaeCBu6ZUZ-33" value="Personaje" style="rounded=0;whiteSpace=wrap;html=1;" parent="1" vertex="1">
          <mxGeometry x="530" y="110" width="120" height="60" as="geometry" />
        </mxCell>
        <mxCell id="3ohj34XaAgGaeCBu6ZUZ-42" style="edgeStyle=orthogonalEdgeStyle;rounded=0;orthogonalLoop=1;jettySize=auto;html=1;entryX=0.5;entryY=0;entryDx=0;entryDy=0;endArrow=none;endFill=0;" parent="1" source="3ohj34XaAgGaeCBu6ZUZ-34" target="3ohj34XaAgGaeCBu6ZUZ-33" edge="1">
          <mxGeometry relative="1" as="geometry">
            <Array as="points">
              <mxPoint x="505" y="80" />
              <mxPoint x="590" y="80" />
            </Array>
          </mxGeometry>
        </mxCell>
        <mxCell id="3ohj34XaAgGaeCBu6ZUZ-34" value="&lt;u&gt;Id&lt;/u&gt;" style="ellipse;whiteSpace=wrap;html=1;rounded=0;" parent="1" vertex="1">
          <mxGeometry x="440" width="90" height="40" as="geometry" />
        </mxCell>
        <mxCell id="3ohj34XaAgGaeCBu6ZUZ-43" style="edgeStyle=orthogonalEdgeStyle;rounded=0;orthogonalLoop=1;jettySize=auto;html=1;entryX=0.5;entryY=0;entryDx=0;entryDy=0;exitX=0.498;exitY=1.015;exitDx=0;exitDy=0;exitPerimeter=0;endArrow=none;endFill=0;" parent="1" source="3ohj34XaAgGaeCBu6ZUZ-35" target="3ohj34XaAgGaeCBu6ZUZ-33" edge="1">
          <mxGeometry relative="1" as="geometry">
            <Array as="points">
              <mxPoint x="590" y="41" />
            </Array>
          </mxGeometry>
        </mxCell>
        <mxCell id="3ohj34XaAgGaeCBu6ZUZ-35" value="nombre" style="ellipse;whiteSpace=wrap;html=1;rounded=0;" parent="1" vertex="1">
          <mxGeometry x="545" width="90" height="40" as="geometry" />
        </mxCell>
        <mxCell id="2gb4X_S6ik0PkrU1D8sP-8" style="edgeStyle=orthogonalEdgeStyle;rounded=0;orthogonalLoop=1;jettySize=auto;html=1;entryX=1;entryY=0.5;entryDx=0;entryDy=0;endArrow=none;endFill=0;" parent="1" source="3ohj34XaAgGaeCBu6ZUZ-36" target="3ohj34XaAgGaeCBu6ZUZ-33" edge="1">
          <mxGeometry relative="1" as="geometry" />
        </mxCell>
        <mxCell id="3ohj34XaAgGaeCBu6ZUZ-36" value="imagen_titulo" style="ellipse;whiteSpace=wrap;html=1;rounded=0;" parent="1" vertex="1">
          <mxGeometry x="710" y="120" width="90" height="40" as="geometry" />
        </mxCell>
        <mxCell id="3ohj34XaAgGaeCBu6ZUZ-40" style="edgeStyle=orthogonalEdgeStyle;rounded=0;orthogonalLoop=1;jettySize=auto;html=1;entryX=0.5;entryY=0;entryDx=0;entryDy=0;endArrow=none;endFill=0;" parent="1" source="3ohj34XaAgGaeCBu6ZUZ-37" target="3ohj34XaAgGaeCBu6ZUZ-33" edge="1">
          <mxGeometry relative="1" as="geometry" />
        </mxCell>
        <mxCell id="3ohj34XaAgGaeCBu6ZUZ-37" value="imagen_personaje" style="ellipse;whiteSpace=wrap;html=1;rounded=0;" parent="1" vertex="1">
          <mxGeometry x="700" y="55" width="110" height="50" as="geometry" />
        </mxCell>
        <mxCell id="3ohj34XaAgGaeCBu6ZUZ-44" style="edgeStyle=orthogonalEdgeStyle;rounded=0;orthogonalLoop=1;jettySize=auto;html=1;entryX=0.5;entryY=0;entryDx=0;entryDy=0;endArrow=none;endFill=0;" parent="1" source="3ohj34XaAgGaeCBu6ZUZ-38" target="3ohj34XaAgGaeCBu6ZUZ-33" edge="1">
          <mxGeometry relative="1" as="geometry">
            <Array as="points">
              <mxPoint x="695" y="80" />
              <mxPoint x="590" y="80" />
            </Array>
          </mxGeometry>
        </mxCell>
        <mxCell id="3ohj34XaAgGaeCBu6ZUZ-38" value="imagen_fondo" style="ellipse;whiteSpace=wrap;html=1;rounded=0;" parent="1" vertex="1">
          <mxGeometry x="650" width="90" height="40" as="geometry" />
        </mxCell>
        <mxCell id="KXtynWiLL4oQulAT6T8i-3" style="edgeStyle=orthogonalEdgeStyle;rounded=0;orthogonalLoop=1;jettySize=auto;html=1;entryX=0;entryY=0.5;entryDx=0;entryDy=0;endArrow=none;endFill=0;" edge="1" parent="1" source="3ohj34XaAgGaeCBu6ZUZ-45" target="3ohj34XaAgGaeCBu6ZUZ-47">
          <mxGeometry relative="1" as="geometry" />
        </mxCell>
        <mxCell id="3ohj34XaAgGaeCBu6ZUZ-45" value="Registrar" style="rhombus;whiteSpace=wrap;html=1;rounded=0;" parent="1" vertex="1">
          <mxGeometry x="465" y="380" width="90" height="80" as="geometry" />
        </mxCell>
        <mxCell id="3ohj34XaAgGaeCBu6ZUZ-47" value="Entrenamiento" style="whiteSpace=wrap;html=1;rounded=0;" parent="1" vertex="1">
          <mxGeometry x="635" y="390" width="120" height="60" as="geometry" />
        </mxCell>
        <mxCell id="KXtynWiLL4oQulAT6T8i-8" style="edgeStyle=orthogonalEdgeStyle;rounded=0;orthogonalLoop=1;jettySize=auto;html=1;entryX=1;entryY=0.5;entryDx=0;entryDy=0;endArrow=none;endFill=0;" edge="1" parent="1" source="3ohj34XaAgGaeCBu6ZUZ-53" target="3ohj34XaAgGaeCBu6ZUZ-47">
          <mxGeometry relative="1" as="geometry" />
        </mxCell>
        <mxCell id="3ohj34XaAgGaeCBu6ZUZ-53" value="Description" style="ellipse;whiteSpace=wrap;html=1;rounded=0;" parent="1" vertex="1">
          <mxGeometry x="860" y="400" width="90" height="40" as="geometry" />
        </mxCell>
        <mxCell id="KXtynWiLL4oQulAT6T8i-9" style="edgeStyle=orthogonalEdgeStyle;rounded=0;orthogonalLoop=1;jettySize=auto;html=1;entryX=1;entryY=0.5;entryDx=0;entryDy=0;endArrow=none;endFill=0;" edge="1" parent="1" source="3ohj34XaAgGaeCBu6ZUZ-54" target="3ohj34XaAgGaeCBu6ZUZ-47">
          <mxGeometry relative="1" as="geometry" />
        </mxCell>
        <mxCell id="3ohj34XaAgGaeCBu6ZUZ-54" value="Personaje" style="ellipse;whiteSpace=wrap;html=1;rounded=0;" parent="1" vertex="1">
          <mxGeometry x="860" y="450" width="90" height="40" as="geometry" />
        </mxCell>
        <mxCell id="KXtynWiLL4oQulAT6T8i-10" style="edgeStyle=orthogonalEdgeStyle;rounded=0;orthogonalLoop=1;jettySize=auto;html=1;entryX=1;entryY=0.5;entryDx=0;entryDy=0;endArrow=none;endFill=0;" edge="1" parent="1" source="3ohj34XaAgGaeCBu6ZUZ-55" target="3ohj34XaAgGaeCBu6ZUZ-47">
          <mxGeometry relative="1" as="geometry" />
        </mxCell>
        <mxCell id="3ohj34XaAgGaeCBu6ZUZ-55" value="Rank" style="ellipse;whiteSpace=wrap;html=1;rounded=0;" parent="1" vertex="1">
          <mxGeometry x="840" y="498" width="90" height="40" as="geometry" />
        </mxCell>
        <mxCell id="KXtynWiLL4oQulAT6T8i-12" style="edgeStyle=orthogonalEdgeStyle;rounded=0;orthogonalLoop=1;jettySize=auto;html=1;entryX=1;entryY=0.5;entryDx=0;entryDy=0;endArrow=none;endFill=0;" edge="1" parent="1" source="3ohj34XaAgGaeCBu6ZUZ-56" target="3ohj34XaAgGaeCBu6ZUZ-47">
          <mxGeometry relative="1" as="geometry">
            <Array as="points">
              <mxPoint x="775" y="420" />
            </Array>
          </mxGeometry>
        </mxCell>
        <mxCell id="3ohj34XaAgGaeCBu6ZUZ-56" value="City" style="ellipse;whiteSpace=wrap;html=1;rounded=0;" parent="1" vertex="1">
          <mxGeometry x="770" y="538" width="90" height="40" as="geometry" />
        </mxCell>
        <mxCell id="KXtynWiLL4oQulAT6T8i-11" style="edgeStyle=orthogonalEdgeStyle;rounded=0;orthogonalLoop=1;jettySize=auto;html=1;entryX=1;entryY=0.5;entryDx=0;entryDy=0;endArrow=none;endFill=0;" edge="1" parent="1" source="3ohj34XaAgGaeCBu6ZUZ-59" target="3ohj34XaAgGaeCBu6ZUZ-47">
          <mxGeometry relative="1" as="geometry">
            <Array as="points">
              <mxPoint x="775" y="420" />
            </Array>
          </mxGeometry>
        </mxCell>
        <mxCell id="3ohj34XaAgGaeCBu6ZUZ-59" value="&lt;u&gt;Id&lt;/u&gt;" style="ellipse;whiteSpace=wrap;html=1;rounded=0;" parent="1" vertex="1">
          <mxGeometry x="760" y="260" width="90" height="40" as="geometry" />
        </mxCell>
        <mxCell id="KXtynWiLL4oQulAT6T8i-6" style="edgeStyle=orthogonalEdgeStyle;rounded=0;orthogonalLoop=1;jettySize=auto;html=1;entryX=1;entryY=0.5;entryDx=0;entryDy=0;endArrow=none;endFill=0;" edge="1" parent="1" source="3ohj34XaAgGaeCBu6ZUZ-60" target="3ohj34XaAgGaeCBu6ZUZ-47">
          <mxGeometry relative="1" as="geometry" />
        </mxCell>
        <mxCell id="3ohj34XaAgGaeCBu6ZUZ-60" value="nombre" style="ellipse;whiteSpace=wrap;html=1;rounded=0;" parent="1" vertex="1">
          <mxGeometry x="840" y="300" width="90" height="40" as="geometry" />
        </mxCell>
        <mxCell id="KXtynWiLL4oQulAT6T8i-7" style="edgeStyle=orthogonalEdgeStyle;rounded=0;orthogonalLoop=1;jettySize=auto;html=1;entryX=1;entryY=0.5;entryDx=0;entryDy=0;endArrow=none;endFill=0;" edge="1" parent="1" source="3ohj34XaAgGaeCBu6ZUZ-61" target="3ohj34XaAgGaeCBu6ZUZ-47">
          <mxGeometry relative="1" as="geometry" />
        </mxCell>
        <mxCell id="3ohj34XaAgGaeCBu6ZUZ-61" value="Price" style="ellipse;whiteSpace=wrap;html=1;rounded=0;" parent="1" vertex="1">
          <mxGeometry x="860" y="350" width="90" height="40" as="geometry" />
        </mxCell>
        <mxCell id="KXtynWiLL4oQulAT6T8i-20" style="edgeStyle=orthogonalEdgeStyle;rounded=0;orthogonalLoop=1;jettySize=auto;html=1;entryX=0.5;entryY=1;entryDx=0;entryDy=0;strokeColor=default;align=center;verticalAlign=middle;fontFamily=Helvetica;fontSize=11;fontColor=default;labelBackgroundColor=default;endArrow=none;endFill=0;" edge="1" parent="1" source="3ohj34XaAgGaeCBu6ZUZ-76" target="3ohj34XaAgGaeCBu6ZUZ-24">
          <mxGeometry relative="1" as="geometry" />
        </mxCell>
        <mxCell id="KXtynWiLL4oQulAT6T8i-21" style="edgeStyle=orthogonalEdgeStyle;rounded=0;orthogonalLoop=1;jettySize=auto;html=1;entryX=0.5;entryY=1;entryDx=0;entryDy=0;strokeColor=default;align=center;verticalAlign=middle;fontFamily=Helvetica;fontSize=11;fontColor=default;labelBackgroundColor=default;endArrow=none;endFill=0;" edge="1" parent="1" source="3ohj34XaAgGaeCBu6ZUZ-76" target="3ohj34XaAgGaeCBu6ZUZ-47">
          <mxGeometry relative="1" as="geometry" />
        </mxCell>
        <mxCell id="3ohj34XaAgGaeCBu6ZUZ-76" value="Usar" style="rhombus;whiteSpace=wrap;html=1;rounded=0;" parent="1" vertex="1">
          <mxGeometry x="350" y="580" width="80" height="80" as="geometry" />
        </mxCell>
        <mxCell id="2gb4X_S6ik0PkrU1D8sP-5" value="(0,N)" style="text;html=1;align=center;verticalAlign=middle;resizable=0;points=[];autosize=1;strokeColor=none;fillColor=none;" parent="1" vertex="1">
          <mxGeometry x="485" y="110" width="50" height="30" as="geometry" />
        </mxCell>
        <mxCell id="2gb4X_S6ik0PkrU1D8sP-6" value="(1,1)" style="text;html=1;align=center;verticalAlign=middle;resizable=0;points=[];autosize=1;strokeColor=none;fillColor=none;" parent="1" vertex="1">
          <mxGeometry x="235" y="110" width="50" height="30" as="geometry" />
        </mxCell>
        <mxCell id="2gb4X_S6ik0PkrU1D8sP-7" value="1:N" style="text;html=1;align=center;verticalAlign=middle;resizable=0;points=[];autosize=1;strokeColor=none;fillColor=none;" parent="1" vertex="1">
          <mxGeometry x="370" y="70" width="40" height="30" as="geometry" />
        </mxCell>
        <mxCell id="2gb4X_S6ik0PkrU1D8sP-9" value="(0,N)" style="text;html=1;align=center;verticalAlign=middle;resizable=0;points=[];autosize=1;strokeColor=none;fillColor=none;" parent="1" vertex="1">
          <mxGeometry x="585" y="430" width="50" height="30" as="geometry" />
        </mxCell>
        <mxCell id="2gb4X_S6ik0PkrU1D8sP-10" value="(1,1)" style="text;html=1;align=center;verticalAlign=middle;resizable=0;points=[];autosize=1;strokeColor=none;fillColor=none;" parent="1" vertex="1">
          <mxGeometry x="340" y="430" width="50" height="30" as="geometry" />
        </mxCell>
        <mxCell id="2gb4X_S6ik0PkrU1D8sP-11" value="(0,N)" style="text;html=1;align=center;verticalAlign=middle;resizable=0;points=[];autosize=1;strokeColor=none;fillColor=none;" parent="1" vertex="1">
          <mxGeometry x="700" y="465" width="50" height="30" as="geometry" />
        </mxCell>
        <mxCell id="2gb4X_S6ik0PkrU1D8sP-12" value="(1,1)" style="text;html=1;align=center;verticalAlign=middle;resizable=0;points=[];autosize=1;strokeColor=none;fillColor=none;" parent="1" vertex="1">
          <mxGeometry x="25" y="468" width="50" height="30" as="geometry" />
        </mxCell>
        <mxCell id="2gb4X_S6ik0PkrU1D8sP-13" value="1:N" style="text;html=1;align=center;verticalAlign=middle;resizable=0;points=[];autosize=1;strokeColor=none;fillColor=none;" parent="1" vertex="1">
          <mxGeometry x="370" y="670" width="40" height="30" as="geometry" />
        </mxCell>
        <mxCell id="2gb4X_S6ik0PkrU1D8sP-14" value="1:N" style="text;html=1;align=center;verticalAlign=middle;resizable=0;points=[];autosize=1;strokeColor=none;fillColor=none;" parent="1" vertex="1">
          <mxGeometry x="490" y="465" width="40" height="30" as="geometry" />
        </mxCell>
        <mxCell id="2gb4X_S6ik0PkrU1D8sP-15" value="" style="shape=requiredInterface;html=1;verticalLabelPosition=bottom;sketch=0;rotation=90;" parent="1" vertex="1">
          <mxGeometry x="157.48" y="239.99999999999997" width="45.03" height="130" as="geometry" />
        </mxCell>
        <mxCell id="2gb4X_S6ik0PkrU1D8sP-17" value="Tiempo Transcurrido" style="ellipse;whiteSpace=wrap;html=1;rounded=0;" parent="1" vertex="1">
          <mxGeometry x="390" y="280" width="100" height="50" as="geometry" />
        </mxCell>
        <mxCell id="2gb4X_S6ik0PkrU1D8sP-19" value="(1,1)" style="text;html=1;align=center;verticalAlign=middle;resizable=0;points=[];autosize=1;strokeColor=none;fillColor=none;" parent="1" vertex="1">
          <mxGeometry x="180" y="180" width="50" height="30" as="geometry" />
        </mxCell>
        <mxCell id="2gb4X_S6ik0PkrU1D8sP-20" value="(0,1)" style="text;html=1;align=center;verticalAlign=middle;resizable=0;points=[];autosize=1;strokeColor=none;fillColor=none;" parent="1" vertex="1">
          <mxGeometry x="25" y="358" width="50" height="30" as="geometry" />
        </mxCell>
        <mxCell id="2gb4X_S6ik0PkrU1D8sP-21" value="(0,1)" style="text;html=1;align=center;verticalAlign=middle;resizable=0;points=[];autosize=1;strokeColor=none;fillColor=none;" parent="1" vertex="1">
          <mxGeometry x="275" y="358" width="50" height="30" as="geometry" />
        </mxCell>
        <mxCell id="KXtynWiLL4oQulAT6T8i-15" value="Transacción" style="whiteSpace=wrap;html=1;" vertex="1" parent="1">
          <mxGeometry x="-110" y="610" width="120" height="60" as="geometry" />
        </mxCell>
      </root>
    </mxGraphModel>
  </diagram>
</mxfile>
